  0
SECTION
  2
BLOCKS
  0
ENDSEC
  0
SECTION
  2
ENTITIES
  0
LINE
  8
0
 10
-100
 11
-99.803
 20
0
 21
6.279
  0
LINE
  8
0
 10
-99.803
 11
-99.211
 20
6.279
 21
12.533
  0
LINE
  8
0
 10
-99.211
 11
-98.229
 20
12.533
 21
18.738
  0
LINE
  8
0
 10
-98.229
 11
-96.858
 20
18.738
 21
24.869
  0
LINE
  8
0
 10
-96.858
 11
-95.106
 20
24.869
 21
30.902
  0
LINE
  8
0
 10
-95.106
 11
-92.978
 20
30.902
 21
36.812
  0
LINE
  8
0
 10
-92.978
 11
-90.483
 20
36.812
 21
42.578
  0
LINE
  8
0
 10
-90.483
 11
-87.631
 20
42.578
 21
48.175
  0
LINE
  8
0
 10
-87.631
 11
-84.433
 20
48.175
 21
53.583
  0
LINE
  8
0
 10
-84.433
 11
-80.902
 20
53.583
 21
58.779
  0
LINE
  8
0
 10
-80.902
 11
-77.051
 20
58.779
 21
63.742
  0
LINE
  8
0
 10
-77.051
 11
-72.897
 20
63.742
 21
68.455
  0
LINE
  8
0
 10
-72.897
 11
-68.455
 20
68.455
 21
72.897
  0
LINE
  8
0
 10
-68.455
 11
-63.742
 20
72.897
 21
77.051
  0
LINE
  8
0
 10
-63.742
 11
-58.779
 20
77.051
 21
80.902
  0
LINE
  8
0
 10
-58.779
 11
-53.583
 20
80.902
 21
84.433
  0
LINE
  8
0
 10
-53.583
 11
-48.175
 20
84.433
 21
87.631
  0
LINE
  8
0
 10
-48.175
 11
-42.578
 20
87.631
 21
90.483
  0
LINE
  8
0
 10
-42.578
 11
-36.812
 20
90.483
 21
92.978
  0
LINE
  8
0
 10
-36.812
 11
-30.902
 20
92.978
 21
95.106
  0
LINE
  8
0
 10
-30.902
 11
-24.869
 20
95.106
 21
96.858
  0
LINE
  8
0
 10
-24.869
 11
-18.738
 20
96.858
 21
98.229
  0
LINE
  8
0
 10
-18.738
 11
-12.533
 20
98.229
 21
99.211
  0
LINE
  8
0
 10
-12.533
 11
-6.279
 20
99.211
 21
99.803
  0
LINE
  8
0
 10
-6.279
 11
0
 20
99.803
 21
100
  0
LINE
  8
0
 10
0
 11
6.279
 20
100
 21
99.803
  0
LINE
  8
0
 10
6.279
 11
12.533
 20
99.803
 21
99.211
  0
LINE
  8
0
 10
12.533
 11
18.738
 20
99.211
 21
98.229
  0
LINE
  8
0
 10
18.738
 11
24.869
 20
98.229
 21
96.858
  0
LINE
  8
0
 10
24.869
 11
30.902
 20
96.858
 21
95.106
  0
LINE
  8
0
 10
30.902
 11
36.812
 20
95.106
 21
92.978
  0
LINE
  8
0
 10
36.812
 11
42.578
 20
92.978
 21
90.483
  0
LINE
  8
0
 10
42.578
 11
48.175
 20
90.483
 21
87.631
  0
LINE
  8
0
 10
48.175
 11
53.583
 20
87.631
 21
84.433
  0
LINE
  8
0
 10
53.583
 11
58.779
 20
84.433
 21
80.902
  0
LINE
  8
0
 10
58.779
 11
63.742
 20
80.902
 21
77.051
  0
LINE
  8
0
 10
63.742
 11
68.455
 20
77.051
 21
72.897
  0
LINE
  8
0
 10
68.455
 11
72.897
 20
72.897
 21
68.455
  0
LINE
  8
0
 10
72.897
 11
77.051
 20
68.455
 21
63.742
  0
LINE
  8
0
 10
77.051
 11
80.902
 20
63.742
 21
58.779
  0
LINE
  8
0
 10
80.902
 11
84.433
 20
58.779
 21
53.583
  0
LINE
  8
0
 10
84.433
 11
87.631
 20
53.583
 21
48.175
  0
LINE
  8
0
 10
87.631
 11
90.483
 20
48.175
 21
42.578
  0
LINE
  8
0
 10
90.483
 11
92.978
 20
42.578
 21
36.812
  0
LINE
  8
0
 10
92.978
 11
95.106
 20
36.812
 21
30.902
  0
LINE
  8
0
 10
95.106
 11
96.858
 20
30.902
 21
24.869
  0
LINE
  8
0
 10
96.858
 11
98.229
 20
24.869
 21
18.738
  0
LINE
  8
0
 10
98.229
 11
99.211
 20
18.738
 21
12.533
  0
LINE
  8
0
 10
99.211
 11
99.803
 20
12.533
 21
6.279
  0
LINE
  8
0
 10
99.803
 11
100
 20
6.279
 21
0
  0
LINE
  8
0
 10
100
 11
99.803
 20
0
 21
-6.279
  0
LINE
  8
0
 10
99.803
 11
99.211
 20
-6.279
 21
-12.533
  0
LINE
  8
0
 10
99.211
 11
98.229
 20
-12.533
 21
-18.738
  0
LINE
  8
0
 10
98.229
 11
96.858
 20
-18.738
 21
-24.869
  0
LINE
  8
0
 10
96.858
 11
95.106
 20
-24.869
 21
-30.902
  0
LINE
  8
0
 10
95.106
 11
92.978
 20
-30.902
 21
-36.812
  0
LINE
  8
0
 10
92.978
 11
90.483
 20
-36.812
 21
-42.578
  0
LINE
  8
0
 10
90.483
 11
87.631
 20
-42.578
 21
-48.175
  0
LINE
  8
0
 10
87.631
 11
84.433
 20
-48.175
 21
-53.583
  0
LINE
  8
0
 10
84.433
 11
80.902
 20
-53.583
 21
-58.779
  0
LINE
  8
0
 10
80.902
 11
77.051
 20
-58.779
 21
-63.742
  0
LINE
  8
0
 10
77.051
 11
72.897
 20
-63.742
 21
-68.455
  0
LINE
  8
0
 10
72.897
 11
68.455
 20
-68.455
 21
-72.897
  0
LINE
  8
0
 10
68.455
 11
63.742
 20
-72.897
 21
-77.051
  0
LINE
  8
0
 10
63.742
 11
58.779
 20
-77.051
 21
-80.902
  0
LINE
  8
0
 10
58.779
 11
53.583
 20
-80.902
 21
-84.433
  0
LINE
  8
0
 10
53.583
 11
48.175
 20
-84.433
 21
-87.631
  0
LINE
  8
0
 10
48.175
 11
42.578
 20
-87.631
 21
-90.483
  0
LINE
  8
0
 10
42.578
 11
36.812
 20
-90.483
 21
-92.978
  0
LINE
  8
0
 10
36.812
 11
30.902
 20
-92.978
 21
-95.106
  0
LINE
  8
0
 10
30.902
 11
24.869
 20
-95.106
 21
-96.858
  0
LINE
  8
0
 10
24.869
 11
18.738
 20
-96.858
 21
-98.229
  0
LINE
  8
0
 10
18.738
 11
12.533
 20
-98.229
 21
-99.211
  0
LINE
  8
0
 10
12.533
 11
6.279
 20
-99.211
 21
-99.803
  0
LINE
  8
0
 10
6.279
 11
0
 20
-99.803
 21
-100
  0
LINE
  8
0
 10
0
 11
-6.279
 20
-100
 21
-99.803
  0
LINE
  8
0
 10
-6.279
 11
-12.533
 20
-99.803
 21
-99.211
  0
LINE
  8
0
 10
-12.533
 11
-18.738
 20
-99.211
 21
-98.229
  0
LINE
  8
0
 10
-18.738
 11
-24.869
 20
-98.229
 21
-96.858
  0
LINE
  8
0
 10
-24.869
 11
-30.902
 20
-96.858
 21
-95.106
  0
LINE
  8
0
 10
-30.902
 11
-36.812
 20
-95.106
 21
-92.978
  0
LINE
  8
0
 10
-36.812
 11
-42.578
 20
-92.978
 21
-90.483
  0
LINE
  8
0
 10
-42.578
 11
-48.175
 20
-90.483
 21
-87.631
  0
LINE
  8
0
 10
-48.175
 11
-53.583
 20
-87.631
 21
-84.433
  0
LINE
  8
0
 10
-53.583
 11
-58.779
 20
-84.433
 21
-80.902
  0
LINE
  8
0
 10
-58.779
 11
-63.742
 20
-80.902
 21
-77.051
  0
LINE
  8
0
 10
-63.742
 11
-68.455
 20
-77.051
 21
-72.897
  0
LINE
  8
0
 10
-68.455
 11
-72.897
 20
-72.897
 21
-68.455
  0
LINE
  8
0
 10
-72.897
 11
-77.051
 20
-68.455
 21
-63.742
  0
LINE
  8
0
 10
-77.051
 11
-80.902
 20
-63.742
 21
-58.779
  0
LINE
  8
0
 10
-80.902
 11
-84.433
 20
-58.779
 21
-53.583
  0
LINE
  8
0
 10
-84.433
 11
-87.631
 20
-53.583
 21
-48.175
  0
LINE
  8
0
 10
-87.631
 11
-90.483
 20
-48.175
 21
-42.578
  0
LINE
  8
0
 10
-90.483
 11
-92.978
 20
-42.578
 21
-36.812
  0
LINE
  8
0
 10
-92.978
 11
-95.106
 20
-36.812
 21
-30.902
  0
LINE
  8
0
 10
-95.106
 11
-96.858
 20
-30.902
 21
-24.869
  0
LINE
  8
0
 10
-96.858
 11
-98.229
 20
-24.869
 21
-18.738
  0
LINE
  8
0
 10
-98.229
 11
-99.211
 20
-18.738
 21
-12.533
  0
LINE
  8
0
 10
-99.211
 11
-99.803
 20
-12.533
 21
-6.279
  0
LINE
  8
0
 10
-99.803
 11
-100
 20
-6.279
 21
0
  0
LINE
  8
0
 10
-87
 11
-87
 20
-23.5
 21
23.5
  0
LINE
  8
0
 10
-87
 11
-63
 20
23.5
 21
23.5
  0
LINE
  8
0
 10
-63
 11
-63
 20
23.5
 21
-23.5
  0
LINE
  8
0
 10
-63
 11
-87
 20
-23.5
 21
-23.5
  0
LINE
  8
0
 10
-58.217
 11
-58.217
 20
-9.077
 21
-8.923
  0
LINE
  8
0
 10
-58.217
 11
-58.198
 20
-8.923
 21
-8.772
  0
LINE
  8
0
 10
-58.198
 11
-58.16
 20
-8.772
 21
-8.623
  0
LINE
  8
0
 10
-58.16
 11
-58.103
 20
-8.623
 21
-8.481
  0
LINE
  8
0
 10
-58.103
 11
-58.029
 20
-8.481
 21
-8.347
  0
LINE
  8
0
 10
-58.029
 11
-57.939
 20
-8.347
 21
-8.223
  0
LINE
  8
0
 10
-57.939
 11
-57.835
 20
-8.223
 21
-8.111
  0
LINE
  8
0
 10
-57.835
 11
-57.717
 20
-8.111
 21
-8.014
  0
LINE
  8
0
 10
-57.717
 11
-57.587
 20
-8.014
 21
-7.932
  0
LINE
  8
0
 10
-57.587
 11
-57.449
 20
-7.932
 21
-7.866
  0
LINE
  8
0
 10
-57.449
 11
-57.303
 20
-7.866
 21
-7.819
  0
LINE
  8
0
 10
-57.303
 11
-57.153
 20
-7.819
 21
-7.79
  0
LINE
  8
0
 10
-57.153
 11
-57
 20
-7.79
 21
-7.781
  0
LINE
  8
0
 10
-57
 11
-56.847
 20
-7.781
 21
-7.79
  0
LINE
  8
0
 10
-56.847
 11
-56.697
 20
-7.79
 21
-7.819
  0
LINE
  8
0
 10
-56.697
 11
-56.551
 20
-7.819
 21
-7.866
  0
LINE
  8
0
 10
-56.551
 11
-56.413
 20
-7.866
 21
-7.932
  0
LINE
  8
0
 10
-56.413
 11
-56.283
 20
-7.932
 21
-8.014
  0
LINE
  8
0
 10
-56.283
 11
-56.165
 20
-8.014
 21
-8.111
  0
LINE
  8
0
 10
-56.165
 11
-56.061
 20
-8.111
 21
-8.223
  0
LINE
  8
0
 10
-56.061
 11
-55.971
 20
-8.223
 21
-8.347
  0
LINE
  8
0
 10
-55.971
 11
-55.897
 20
-8.347
 21
-8.481
  0
LINE
  8
0
 10
-55.897
 11
-55.84
 20
-8.481
 21
-8.623
  0
LINE
  8
0
 10
-55.84
 11
-55.802
 20
-8.623
 21
-8.772
  0
LINE
  8
0
 10
-55.802
 11
-55.783
 20
-8.772
 21
-8.923
  0
LINE
  8
0
 10
-55.783
 11
-55.783
 20
-8.923
 21
-9.077
  0
LINE
  8
0
 10
-55.783
 11
-55.802
 20
-9.077
 21
-9.228
  0
LINE
  8
0
 10
-55.802
 11
-55.84
 20
-9.228
 21
-9.377
  0
LINE
  8
0
 10
-55.84
 11
-55.897
 20
-9.377
 21
-9.519
  0
LINE
  8
0
 10
-55.897
 11
-55.971
 20
-9.519
 21
-9.653
  0
LINE
  8
0
 10
-55.971
 11
-56.061
 20
-9.653
 21
-9.777
  0
LINE
  8
0
 10
-56.061
 11
-56.165
 20
-9.777
 21
-9.889
  0
LINE
  8
0
 10
-56.165
 11
-56.283
 20
-9.889
 21
-9.986
  0
LINE
  8
0
 10
-56.283
 11
-56.413
 20
-9.986
 21
-10.068
  0
LINE
  8
0
 10
-56.413
 11
-56.551
 20
-10.068
 21
-10.134
  0
LINE
  8
0
 10
-56.551
 11
-56.697
 20
-10.134
 21
-10.181
  0
LINE
  8
0
 10
-56.697
 11
-56.847
 20
-10.181
 21
-10.21
  0
LINE
  8
0
 10
-56.847
 11
-57
 20
-10.21
 21
-10.219
  0
LINE
  8
0
 10
-57
 11
-57.153
 20
-10.219
 21
-10.21
  0
LINE
  8
0
 10
-57.153
 11
-57.303
 20
-10.21
 21
-10.181
  0
LINE
  8
0
 10
-57.303
 11
-57.449
 20
-10.181
 21
-10.134
  0
LINE
  8
0
 10
-57.449
 11
-57.587
 20
-10.134
 21
-10.068
  0
LINE
  8
0
 10
-57.587
 11
-57.717
 20
-10.068
 21
-9.986
  0
LINE
  8
0
 10
-57.717
 11
-57.835
 20
-9.986
 21
-9.889
  0
LINE
  8
0
 10
-57.835
 11
-57.939
 20
-9.889
 21
-9.777
  0
LINE
  8
0
 10
-57.939
 11
-58.029
 20
-9.777
 21
-9.653
  0
LINE
  8
0
 10
-58.029
 11
-58.103
 20
-9.653
 21
-9.519
  0
LINE
  8
0
 10
-58.103
 11
-58.16
 20
-9.519
 21
-9.377
  0
LINE
  8
0
 10
-58.16
 11
-58.198
 20
-9.377
 21
-9.228
  0
LINE
  8
0
 10
-58.198
 11
-58.217
 20
-9.228
 21
-9.077
  0
LINE
  8
0
 10
-58.217
 11
-58.217
 20
8.923
 21
9.077
  0
LINE
  8
0
 10
-58.217
 11
-58.198
 20
9.077
 21
9.228
  0
LINE
  8
0
 10
-58.198
 11
-58.16
 20
9.228
 21
9.377
  0
LINE
  8
0
 10
-58.16
 11
-58.103
 20
9.377
 21
9.519
  0
LINE
  8
0
 10
-58.103
 11
-58.029
 20
9.519
 21
9.653
  0
LINE
  8
0
 10
-58.029
 11
-57.939
 20
9.653
 21
9.777
  0
LINE
  8
0
 10
-57.939
 11
-57.835
 20
9.777
 21
9.889
  0
LINE
  8
0
 10
-57.835
 11
-57.717
 20
9.889
 21
9.986
  0
LINE
  8
0
 10
-57.717
 11
-57.587
 20
9.986
 21
10.068
  0
LINE
  8
0
 10
-57.587
 11
-57.449
 20
10.068
 21
10.134
  0
LINE
  8
0
 10
-57.449
 11
-57.303
 20
10.134
 21
10.181
  0
LINE
  8
0
 10
-57.303
 11
-57.153
 20
10.181
 21
10.21
  0
LINE
  8
0
 10
-57.153
 11
-57
 20
10.21
 21
10.219
  0
LINE
  8
0
 10
-57
 11
-56.847
 20
10.219
 21
10.21
  0
LINE
  8
0
 10
-56.847
 11
-56.697
 20
10.21
 21
10.181
  0
LINE
  8
0
 10
-56.697
 11
-56.551
 20
10.181
 21
10.134
  0
LINE
  8
0
 10
-56.551
 11
-56.413
 20
10.134
 21
10.068
  0
LINE
  8
0
 10
-56.413
 11
-56.283
 20
10.068
 21
9.986
  0
LINE
  8
0
 10
-56.283
 11
-56.165
 20
9.986
 21
9.889
  0
LINE
  8
0
 10
-56.165
 11
-56.061
 20
9.889
 21
9.777
  0
LINE
  8
0
 10
-56.061
 11
-55.971
 20
9.777
 21
9.653
  0
LINE
  8
0
 10
-55.971
 11
-55.897
 20
9.653
 21
9.519
  0
LINE
  8
0
 10
-55.897
 11
-55.84
 20
9.519
 21
9.377
  0
LINE
  8
0
 10
-55.84
 11
-55.802
 20
9.377
 21
9.228
  0
LINE
  8
0
 10
-55.802
 11
-55.783
 20
9.228
 21
9.077
  0
LINE
  8
0
 10
-55.783
 11
-55.783
 20
9.077
 21
8.923
  0
LINE
  8
0
 10
-55.783
 11
-55.802
 20
8.923
 21
8.772
  0
LINE
  8
0
 10
-55.802
 11
-55.84
 20
8.772
 21
8.623
  0
LINE
  8
0
 10
-55.84
 11
-55.897
 20
8.623
 21
8.481
  0
LINE
  8
0
 10
-55.897
 11
-55.971
 20
8.481
 21
8.347
  0
LINE
  8
0
 10
-55.971
 11
-56.061
 20
8.347
 21
8.223
  0
LINE
  8
0
 10
-56.061
 11
-56.165
 20
8.223
 21
8.111
  0
LINE
  8
0
 10
-56.165
 11
-56.283
 20
8.111
 21
8.014
  0
LINE
  8
0
 10
-56.283
 11
-56.413
 20
8.014
 21
7.932
  0
LINE
  8
0
 10
-56.413
 11
-56.551
 20
7.932
 21
7.866
  0
LINE
  8
0
 10
-56.551
 11
-56.697
 20
7.866
 21
7.819
  0
LINE
  8
0
 10
-56.697
 11
-56.847
 20
7.819
 21
7.79
  0
LINE
  8
0
 10
-56.847
 11
-57
 20
7.79
 21
7.781
  0
LINE
  8
0
 10
-57
 11
-57.153
 20
7.781
 21
7.79
  0
LINE
  8
0
 10
-57.153
 11
-57.303
 20
7.79
 21
7.819
  0
LINE
  8
0
 10
-57.303
 11
-57.449
 20
7.819
 21
7.866
  0
LINE
  8
0
 10
-57.449
 11
-57.587
 20
7.866
 21
7.932
  0
LINE
  8
0
 10
-57.587
 11
-57.717
 20
7.932
 21
8.014
  0
LINE
  8
0
 10
-57.717
 11
-57.835
 20
8.014
 21
8.111
  0
LINE
  8
0
 10
-57.835
 11
-57.939
 20
8.111
 21
8.223
  0
LINE
  8
0
 10
-57.939
 11
-58.029
 20
8.223
 21
8.347
  0
LINE
  8
0
 10
-58.029
 11
-58.103
 20
8.347
 21
8.481
  0
LINE
  8
0
 10
-58.103
 11
-58.16
 20
8.481
 21
8.623
  0
LINE
  8
0
 10
-58.16
 11
-58.198
 20
8.623
 21
8.772
  0
LINE
  8
0
 10
-58.198
 11
-58.217
 20
8.772
 21
8.923
  0
LINE
  8
0
 10
-54.033
 11
-54.014
 20
-53.033
 21
-52.838
  0
LINE
  8
0
 10
-54.014
 11
-53.957
 20
-52.838
 21
-52.65
  0
LINE
  8
0
 10
-53.957
 11
-53.864
 20
-52.65
 21
-52.477
  0
LINE
  8
0
 10
-53.864
 11
-53.74
 20
-52.477
 21
-52.326
  0
LINE
  8
0
 10
-53.74
 11
-53.589
 20
-52.326
 21
-52.202
  0
LINE
  8
0
 10
-53.589
 11
-53.416
 20
-52.202
 21
-52.109
  0
LINE
  8
0
 10
-53.416
 11
-53.228
 20
-52.109
 21
-52.052
  0
LINE
  8
0
 10
-53.228
 11
-53.033
 20
-52.052
 21
-52.033
  0
LINE
  8
0
 10
-53.033
 11
-52.838
 20
-52.033
 21
-52.052
  0
LINE
  8
0
 10
-52.838
 11
-52.65
 20
-52.052
 21
-52.109
  0
LINE
  8
0
 10
-52.65
 11
-52.477
 20
-52.109
 21
-52.202
  0
LINE
  8
0
 10
-52.477
 11
-52.326
 20
-52.202
 21
-52.326
  0
LINE
  8
0
 10
-52.326
 11
-52.202
 20
-52.326
 21
-52.477
  0
LINE
  8
0
 10
-52.202
 11
-52.109
 20
-52.477
 21
-52.65
  0
LINE
  8
0
 10
-52.109
 11
-52.052
 20
-52.65
 21
-52.838
  0
LINE
  8
0
 10
-52.052
 11
-52.033
 20
-52.838
 21
-53.033
  0
LINE
  8
0
 10
-52.033
 11
-52.052
 20
-53.033
 21
-53.228
  0
LINE
  8
0
 10
-52.052
 11
-52.109
 20
-53.228
 21
-53.416
  0
LINE
  8
0
 10
-52.109
 11
-52.202
 20
-53.416
 21
-53.589
  0
LINE
  8
0
 10
-52.202
 11
-52.326
 20
-53.589
 21
-53.74
  0
LINE
  8
0
 10
-52.326
 11
-52.477
 20
-53.74
 21
-53.864
  0
LINE
  8
0
 10
-52.477
 11
-52.65
 20
-53.864
 21
-53.957
  0
LINE
  8
0
 10
-52.65
 11
-52.838
 20
-53.957
 21
-54.014
  0
LINE
  8
0
 10
-52.838
 11
-53.033
 20
-54.014
 21
-54.033
  0
LINE
  8
0
 10
-53.033
 11
-53.228
 20
-54.033
 21
-54.014
  0
LINE
  8
0
 10
-53.228
 11
-53.416
 20
-54.014
 21
-53.957
  0
LINE
  8
0
 10
-53.416
 11
-53.589
 20
-53.957
 21
-53.864
  0
LINE
  8
0
 10
-53.589
 11
-53.74
 20
-53.864
 21
-53.74
  0
LINE
  8
0
 10
-53.74
 11
-53.864
 20
-53.74
 21
-53.589
  0
LINE
  8
0
 10
-53.864
 11
-53.957
 20
-53.589
 21
-53.416
  0
LINE
  8
0
 10
-53.957
 11
-54.014
 20
-53.416
 21
-53.228
  0
LINE
  8
0
 10
-54.014
 11
-54.033
 20
-53.228
 21
-53.033
  0
LINE
  8
0
 10
-54.033
 11
-54.014
 20
53.033
 21
53.228
  0
LINE
  8
0
 10
-54.014
 11
-53.957
 20
53.228
 21
53.416
  0
LINE
  8
0
 10
-53.957
 11
-53.864
 20
53.416
 21
53.589
  0
LINE
  8
0
 10
-53.864
 11
-53.74
 20
53.589
 21
53.74
  0
LINE
  8
0
 10
-53.74
 11
-53.589
 20
53.74
 21
53.864
  0
LINE
  8
0
 10
-53.589
 11
-53.416
 20
53.864
 21
53.957
  0
LINE
  8
0
 10
-53.416
 11
-53.228
 20
53.957
 21
54.014
  0
LINE
  8
0
 10
-53.228
 11
-53.033
 20
54.014
 21
54.033
  0
LINE
  8
0
 10
-53.033
 11
-52.838
 20
54.033
 21
54.014
  0
LINE
  8
0
 10
-52.838
 11
-52.65
 20
54.014
 21
53.957
  0
LINE
  8
0
 10
-52.65
 11
-52.477
 20
53.957
 21
53.864
  0
LINE
  8
0
 10
-52.477
 11
-52.326
 20
53.864
 21
53.74
  0
LINE
  8
0
 10
-52.326
 11
-52.202
 20
53.74
 21
53.589
  0
LINE
  8
0
 10
-52.202
 11
-52.109
 20
53.589
 21
53.416
  0
LINE
  8
0
 10
-52.109
 11
-52.052
 20
53.416
 21
53.228
  0
LINE
  8
0
 10
-52.052
 11
-52.033
 20
53.228
 21
53.033
  0
LINE
  8
0
 10
-52.033
 11
-52.052
 20
53.033
 21
52.838
  0
LINE
  8
0
 10
-52.052
 11
-52.109
 20
52.838
 21
52.65
  0
LINE
  8
0
 10
-52.109
 11
-52.202
 20
52.65
 21
52.477
  0
LINE
  8
0
 10
-52.202
 11
-52.326
 20
52.477
 21
52.326
  0
LINE
  8
0
 10
-52.326
 11
-52.477
 20
52.326
 21
52.202
  0
LINE
  8
0
 10
-52.477
 11
-52.65
 20
52.202
 21
52.109
  0
LINE
  8
0
 10
-52.65
 11
-52.838
 20
52.109
 21
52.052
  0
LINE
  8
0
 10
-52.838
 11
-53.033
 20
52.052
 21
52.033
  0
LINE
  8
0
 10
-53.033
 11
-53.228
 20
52.033
 21
52.052
  0
LINE
  8
0
 10
-53.228
 11
-53.416
 20
52.052
 21
52.109
  0
LINE
  8
0
 10
-53.416
 11
-53.589
 20
52.109
 21
52.202
  0
LINE
  8
0
 10
-53.589
 11
-53.74
 20
52.202
 21
52.326
  0
LINE
  8
0
 10
-53.74
 11
-53.864
 20
52.326
 21
52.477
  0
LINE
  8
0
 10
-53.864
 11
-53.957
 20
52.477
 21
52.65
  0
LINE
  8
0
 10
-53.957
 11
-54.014
 20
52.65
 21
52.838
  0
LINE
  8
0
 10
-54.014
 11
-54.033
 20
52.838
 21
53.033
  0
LINE
  8
0
 10
-23.46
 11
-23.441
 20
-74.76
 21
-74.565
  0
LINE
  8
0
 10
-23.441
 11
-23.384
 20
-74.565
 21
-74.377
  0
LINE
  8
0
 10
-23.384
 11
-23.291
 20
-74.377
 21
-74.204
  0
LINE
  8
0
 10
-23.291
 11
-23.167
 20
-74.204
 21
-74.053
  0
LINE
  8
0
 10
-23.167
 11
-23.016
 20
-74.053
 21
-73.929
  0
LINE
  8
0
 10
-23.016
 11
-22.843
 20
-73.929
 21
-73.836
  0
LINE
  8
0
 10
-22.843
 11
-22.655
 20
-73.836
 21
-73.779
  0
LINE
  8
0
 10
-22.655
 11
-22.46
 20
-73.779
 21
-73.76
  0
LINE
  8
0
 10
-22.46
 11
-22.265
 20
-73.76
 21
-73.779
  0
LINE
  8
0
 10
-22.265
 11
-22.077
 20
-73.779
 21
-73.836
  0
LINE
  8
0
 10
-22.077
 11
-21.904
 20
-73.836
 21
-73.929
  0
LINE
  8
0
 10
-21.904
 11
-21.753
 20
-73.929
 21
-74.053
  0
LINE
  8
0
 10
-21.753
 11
-21.629
 20
-74.053
 21
-74.204
  0
LINE
  8
0
 10
-21.629
 11
-21.536
 20
-74.204
 21
-74.377
  0
LINE
  8
0
 10
-21.536
 11
-21.479
 20
-74.377
 21
-74.565
  0
LINE
  8
0
 10
-21.479
 11
-21.46
 20
-74.565
 21
-74.76
  0
LINE
  8
0
 10
-21.46
 11
-21.479
 20
-74.76
 21
-74.955
  0
LINE
  8
0
 10
-21.479
 11
-21.536
 20
-74.955
 21
-75.143
  0
LINE
  8
0
 10
-21.536
 11
-21.629
 20
-75.143
 21
-75.316
  0
LINE
  8
0
 10
-21.629
 11
-21.753
 20
-75.316
 21
-75.467
  0
LINE
  8
0
 10
-21.753
 11
-21.904
 20
-75.467
 21
-75.591
  0
LINE
  8
0
 10
-21.904
 11
-22.077
 20
-75.591
 21
-75.684
  0
LINE
  8
0
 10
-22.077
 11
-22.265
 20
-75.684
 21
-75.741
  0
LINE
  8
0
 10
-22.265
 11
-22.46
 20
-75.741
 21
-75.76
  0
LINE
  8
0
 10
-22.46
 11
-22.655
 20
-75.76
 21
-75.741
  0
LINE
  8
0
 10
-22.655
 11
-22.843
 20
-75.741
 21
-75.684
  0
LINE
  8
0
 10
-22.843
 11
-23.016
 20
-75.684
 21
-75.591
  0
LINE
  8
0
 10
-23.016
 11
-23.167
 20
-75.591
 21
-75.467
  0
LINE
  8
0
 10
-23.167
 11
-23.291
 20
-75.467
 21
-75.316
  0
LINE
  8
0
 10
-23.291
 11
-23.384
 20
-75.316
 21
-75.143
  0
LINE
  8
0
 10
-23.384
 11
-23.441
 20
-75.143
 21
-74.955
  0
LINE
  8
0
 10
-23.441
 11
-23.46
 20
-74.955
 21
-74.76
  0
LINE
  8
0
 10
-8.22
 11
-8.201
 20
-23.96
 21
-23.765
  0
LINE
  8
0
 10
-8.201
 11
-8.144
 20
-23.765
 21
-23.577
  0
LINE
  8
0
 10
-8.144
 11
-8.051
 20
-23.577
 21
-23.404
  0
LINE
  8
0
 10
-8.051
 11
-7.927
 20
-23.404
 21
-23.253
  0
LINE
  8
0
 10
-7.927
 11
-7.776
 20
-23.253
 21
-23.129
  0
LINE
  8
0
 10
-7.776
 11
-7.603
 20
-23.129
 21
-23.036
  0
LINE
  8
0
 10
-7.603
 11
-7.415
 20
-23.036
 21
-22.979
  0
LINE
  8
0
 10
-7.415
 11
-7.22
 20
-22.979
 21
-22.96
  0
LINE
  8
0
 10
-7.22
 11
-7.025
 20
-22.96
 21
-22.979
  0
LINE
  8
0
 10
-7.025
 11
-6.837
 20
-22.979
 21
-23.036
  0
LINE
  8
0
 10
-6.837
 11
-6.664
 20
-23.036
 21
-23.129
  0
LINE
  8
0
 10
-6.664
 11
-6.513
 20
-23.129
 21
-23.253
  0
LINE
  8
0
 10
-6.513
 11
-6.389
 20
-23.253
 21
-23.404
  0
LINE
  8
0
 10
-6.389
 11
-6.296
 20
-23.404
 21
-23.577
  0
LINE
  8
0
 10
-6.296
 11
-6.239
 20
-23.577
 21
-23.765
  0
LINE
  8
0
 10
-6.239
 11
-6.22
 20
-23.765
 21
-23.96
  0
LINE
  8
0
 10
-6.22
 11
-6.239
 20
-23.96
 21
-24.155
  0
LINE
  8
0
 10
-6.239
 11
-6.296
 20
-24.155
 21
-24.343
  0
LINE
  8
0
 10
-6.296
 11
-6.389
 20
-24.343
 21
-24.516
  0
LINE
  8
0
 10
-6.389
 11
-6.513
 20
-24.516
 21
-24.667
  0
LINE
  8
0
 10
-6.513
 11
-6.664
 20
-24.667
 21
-24.791
  0
LINE
  8
0
 10
-6.664
 11
-6.837
 20
-24.791
 21
-24.884
  0
LINE
  8
0
 10
-6.837
 11
-7.025
 20
-24.884
 21
-24.941
  0
LINE
  8
0
 10
-7.025
 11
-7.22
 20
-24.941
 21
-24.96
  0
LINE
  8
0
 10
-7.22
 11
-7.415
 20
-24.96
 21
-24.941
  0
LINE
  8
0
 10
-7.415
 11
-7.603
 20
-24.941
 21
-24.884
  0
LINE
  8
0
 10
-7.603
 11
-7.776
 20
-24.884
 21
-24.791
  0
LINE
  8
0
 10
-7.776
 11
-7.927
 20
-24.791
 21
-24.667
  0
LINE
  8
0
 10
-7.927
 11
-8.051
 20
-24.667
 21
-24.516
  0
LINE
  8
0
 10
-8.051
 11
-8.144
 20
-24.516
 21
-24.343
  0
LINE
  8
0
 10
-8.144
 11
-8.201
 20
-24.343
 21
-24.155
  0
LINE
  8
0
 10
-8.201
 11
-8.22
 20
-24.155
 21
-23.96
  0
LINE
  8
0
 10
19.72
 11
19.739
 20
-23.96
 21
-23.765
  0
LINE
  8
0
 10
19.739
 11
19.796
 20
-23.765
 21
-23.577
  0
LINE
  8
0
 10
19.796
 11
19.889
 20
-23.577
 21
-23.404
  0
LINE
  8
0
 10
19.889
 11
20.013
 20
-23.404
 21
-23.253
  0
LINE
  8
0
 10
20.013
 11
20.164
 20
-23.253
 21
-23.129
  0
LINE
  8
0
 10
20.164
 11
20.337
 20
-23.129
 21
-23.036
  0
LINE
  8
0
 10
20.337
 11
20.525
 20
-23.036
 21
-22.979
  0
LINE
  8
0
 10
20.525
 11
20.72
 20
-22.979
 21
-22.96
  0
LINE
  8
0
 10
20.72
 11
20.915
 20
-22.96
 21
-22.979
  0
LINE
  8
0
 10
20.915
 11
21.103
 20
-22.979
 21
-23.036
  0
LINE
  8
0
 10
21.103
 11
21.276
 20
-23.036
 21
-23.129
  0
LINE
  8
0
 10
21.276
 11
21.427
 20
-23.129
 21
-23.253
  0
LINE
  8
0
 10
21.427
 11
21.551
 20
-23.253
 21
-23.404
  0
LINE
  8
0
 10
21.551
 11
21.644
 20
-23.404
 21
-23.577
  0
LINE
  8
0
 10
21.644
 11
21.701
 20
-23.577
 21
-23.765
  0
LINE
  8
0
 10
21.701
 11
21.72
 20
-23.765
 21
-23.96
  0
LINE
  8
0
 10
21.72
 11
21.701
 20
-23.96
 21
-24.155
  0
LINE
  8
0
 10
21.701
 11
21.644
 20
-24.155
 21
-24.343
  0
LINE
  8
0
 10
21.644
 11
21.551
 20
-24.343
 21
-24.516
  0
LINE
  8
0
 10
21.551
 11
21.427
 20
-24.516
 21
-24.667
  0
LINE
  8
0
 10
21.427
 11
21.276
 20
-24.667
 21
-24.791
  0
LINE
  8
0
 10
21.276
 11
21.103
 20
-24.791
 21
-24.884
  0
LINE
  8
0
 10
21.103
 11
20.915
 20
-24.884
 21
-24.941
  0
LINE
  8
0
 10
20.915
 11
20.72
 20
-24.941
 21
-24.96
  0
LINE
  8
0
 10
20.72
 11
20.525
 20
-24.96
 21
-24.941
  0
LINE
  8
0
 10
20.525
 11
20.337
 20
-24.941
 21
-24.884
  0
LINE
  8
0
 10
20.337
 11
20.164
 20
-24.884
 21
-24.791
  0
LINE
  8
0
 10
20.164
 11
20.013
 20
-24.791
 21
-24.667
  0
LINE
  8
0
 10
20.013
 11
19.889
 20
-24.667
 21
-24.516
  0
LINE
  8
0
 10
19.889
 11
19.796
 20
-24.516
 21
-24.343
  0
LINE
  8
0
 10
19.796
 11
19.739
 20
-24.343
 21
-24.155
  0
LINE
  8
0
 10
19.739
 11
19.72
 20
-24.155
 21
-23.96
  0
LINE
  8
0
 10
24.8
 11
24.819
 20
-76.03
 21
-75.835
  0
LINE
  8
0
 10
24.819
 11
24.876
 20
-75.835
 21
-75.647
  0
LINE
  8
0
 10
24.876
 11
24.969
 20
-75.647
 21
-75.474
  0
LINE
  8
0
 10
24.969
 11
25.093
 20
-75.474
 21
-75.323
  0
LINE
  8
0
 10
25.093
 11
25.244
 20
-75.323
 21
-75.199
  0
LINE
  8
0
 10
25.244
 11
25.417
 20
-75.199
 21
-75.106
  0
LINE
  8
0
 10
25.417
 11
25.605
 20
-75.106
 21
-75.049
  0
LINE
  8
0
 10
25.605
 11
25.8
 20
-75.049
 21
-75.03
  0
LINE
  8
0
 10
25.8
 11
25.995
 20
-75.03
 21
-75.049
  0
LINE
  8
0
 10
25.995
 11
26.183
 20
-75.049
 21
-75.106
  0
LINE
  8
0
 10
26.183
 11
26.356
 20
-75.106
 21
-75.199
  0
LINE
  8
0
 10
26.356
 11
26.507
 20
-75.199
 21
-75.323
  0
LINE
  8
0
 10
26.507
 11
26.631
 20
-75.323
 21
-75.474
  0
LINE
  8
0
 10
26.631
 11
26.724
 20
-75.474
 21
-75.647
  0
LINE
  8
0
 10
26.724
 11
26.781
 20
-75.647
 21
-75.835
  0
LINE
  8
0
 10
26.781
 11
26.8
 20
-75.835
 21
-76.03
  0
LINE
  8
0
 10
26.8
 11
26.781
 20
-76.03
 21
-76.225
  0
LINE
  8
0
 10
26.781
 11
26.724
 20
-76.225
 21
-76.413
  0
LINE
  8
0
 10
26.724
 11
26.631
 20
-76.413
 21
-76.586
  0
LINE
  8
0
 10
26.631
 11
26.507
 20
-76.586
 21
-76.737
  0
LINE
  8
0
 10
26.507
 11
26.356
 20
-76.737
 21
-76.861
  0
LINE
  8
0
 10
26.356
 11
26.183
 20
-76.861
 21
-76.954
  0
LINE
  8
0
 10
26.183
 11
25.995
 20
-76.954
 21
-77.011
  0
LINE
  8
0
 10
25.995
 11
25.8
 20
-77.011
 21
-77.03
  0
LINE
  8
0
 10
25.8
 11
25.605
 20
-77.03
 21
-77.011
  0
LINE
  8
0
 10
25.605
 11
25.417
 20
-77.011
 21
-76.954
  0
LINE
  8
0
 10
25.417
 11
25.244
 20
-76.954
 21
-76.861
  0
LINE
  8
0
 10
25.244
 11
25.093
 20
-76.861
 21
-76.737
  0
LINE
  8
0
 10
25.093
 11
24.969
 20
-76.737
 21
-76.586
  0
LINE
  8
0
 10
24.969
 11
24.876
 20
-76.586
 21
-76.413
  0
LINE
  8
0
 10
24.876
 11
24.819
 20
-76.413
 21
-76.225
  0
LINE
  8
0
 10
24.819
 11
24.8
 20
-76.225
 21
-76.03
  0
LINE
  8
0
 10
52.033
 11
52.052
 20
-53.033
 21
-52.838
  0
LINE
  8
0
 10
52.052
 11
52.109
 20
-52.838
 21
-52.65
  0
LINE
  8
0
 10
52.109
 11
52.202
 20
-52.65
 21
-52.477
  0
LINE
  8
0
 10
52.202
 11
52.326
 20
-52.477
 21
-52.326
  0
LINE
  8
0
 10
52.326
 11
52.477
 20
-52.326
 21
-52.202
  0
LINE
  8
0
 10
52.477
 11
52.65
 20
-52.202
 21
-52.109
  0
LINE
  8
0
 10
52.65
 11
52.838
 20
-52.109
 21
-52.052
  0
LINE
  8
0
 10
52.838
 11
53.033
 20
-52.052
 21
-52.033
  0
LINE
  8
0
 10
53.033
 11
53.228
 20
-52.033
 21
-52.052
  0
LINE
  8
0
 10
53.228
 11
53.416
 20
-52.052
 21
-52.109
  0
LINE
  8
0
 10
53.416
 11
53.589
 20
-52.109
 21
-52.202
  0
LINE
  8
0
 10
53.589
 11
53.74
 20
-52.202
 21
-52.326
  0
LINE
  8
0
 10
53.74
 11
53.864
 20
-52.326
 21
-52.477
  0
LINE
  8
0
 10
53.864
 11
53.957
 20
-52.477
 21
-52.65
  0
LINE
  8
0
 10
53.957
 11
54.014
 20
-52.65
 21
-52.838
  0
LINE
  8
0
 10
54.014
 11
54.033
 20
-52.838
 21
-53.033
  0
LINE
  8
0
 10
54.033
 11
54.014
 20
-53.033
 21
-53.228
  0
LINE
  8
0
 10
54.014
 11
53.957
 20
-53.228
 21
-53.416
  0
LINE
  8
0
 10
53.957
 11
53.864
 20
-53.416
 21
-53.589
  0
LINE
  8
0
 10
53.864
 11
53.74
 20
-53.589
 21
-53.74
  0
LINE
  8
0
 10
53.74
 11
53.589
 20
-53.74
 21
-53.864
  0
LINE
  8
0
 10
53.589
 11
53.416
 20
-53.864
 21
-53.957
  0
LINE
  8
0
 10
53.416
 11
53.228
 20
-53.957
 21
-54.014
  0
LINE
  8
0
 10
53.228
 11
53.033
 20
-54.014
 21
-54.033
  0
LINE
  8
0
 10
53.033
 11
52.838
 20
-54.033
 21
-54.014
  0
LINE
  8
0
 10
52.838
 11
52.65
 20
-54.014
 21
-53.957
  0
LINE
  8
0
 10
52.65
 11
52.477
 20
-53.957
 21
-53.864
  0
LINE
  8
0
 10
52.477
 11
52.326
 20
-53.864
 21
-53.74
  0
LINE
  8
0
 10
52.326
 11
52.202
 20
-53.74
 21
-53.589
  0
LINE
  8
0
 10
52.202
 11
52.109
 20
-53.589
 21
-53.416
  0
LINE
  8
0
 10
52.109
 11
52.052
 20
-53.416
 21
-53.228
  0
LINE
  8
0
 10
52.052
 11
52.033
 20
-53.228
 21
-53.033
  0
LINE
  8
0
 10
52.033
 11
52.052
 20
53.033
 21
53.228
  0
LINE
  8
0
 10
52.052
 11
52.109
 20
53.228
 21
53.416
  0
LINE
  8
0
 10
52.109
 11
52.202
 20
53.416
 21
53.589
  0
LINE
  8
0
 10
52.202
 11
52.326
 20
53.589
 21
53.74
  0
LINE
  8
0
 10
52.326
 11
52.477
 20
53.74
 21
53.864
  0
LINE
  8
0
 10
52.477
 11
52.65
 20
53.864
 21
53.957
  0
LINE
  8
0
 10
52.65
 11
52.838
 20
53.957
 21
54.014
  0
LINE
  8
0
 10
52.838
 11
53.033
 20
54.014
 21
54.033
  0
LINE
  8
0
 10
53.033
 11
53.228
 20
54.033
 21
54.014
  0
LINE
  8
0
 10
53.228
 11
53.416
 20
54.014
 21
53.957
  0
LINE
  8
0
 10
53.416
 11
53.589
 20
53.957
 21
53.864
  0
LINE
  8
0
 10
53.589
 11
53.74
 20
53.864
 21
53.74
  0
LINE
  8
0
 10
53.74
 11
53.864
 20
53.74
 21
53.589
  0
LINE
  8
0
 10
53.864
 11
53.957
 20
53.589
 21
53.416
  0
LINE
  8
0
 10
53.957
 11
54.014
 20
53.416
 21
53.228
  0
LINE
  8
0
 10
54.014
 11
54.033
 20
53.228
 21
53.033
  0
LINE
  8
0
 10
54.033
 11
54.014
 20
53.033
 21
52.838
  0
LINE
  8
0
 10
54.014
 11
53.957
 20
52.838
 21
52.65
  0
LINE
  8
0
 10
53.957
 11
53.864
 20
52.65
 21
52.477
  0
LINE
  8
0
 10
53.864
 11
53.74
 20
52.477
 21
52.326
  0
LINE
  8
0
 10
53.74
 11
53.589
 20
52.326
 21
52.202
  0
LINE
  8
0
 10
53.589
 11
53.416
 20
52.202
 21
52.109
  0
LINE
  8
0
 10
53.416
 11
53.228
 20
52.109
 21
52.052
  0
LINE
  8
0
 10
53.228
 11
53.033
 20
52.052
 21
52.033
  0
LINE
  8
0
 10
53.033
 11
52.838
 20
52.033
 21
52.052
  0
LINE
  8
0
 10
52.838
 11
52.65
 20
52.052
 21
52.109
  0
LINE
  8
0
 10
52.65
 11
52.477
 20
52.109
 21
52.202
  0
LINE
  8
0
 10
52.477
 11
52.326
 20
52.202
 21
52.326
  0
LINE
  8
0
 10
52.326
 11
52.202
 20
52.326
 21
52.477
  0
LINE
  8
0
 10
52.202
 11
52.109
 20
52.477
 21
52.65
  0
LINE
  8
0
 10
52.109
 11
52.052
 20
52.65
 21
52.838
  0
LINE
  8
0
 10
52.052
 11
52.033
 20
52.838
 21
53.033
  0
LINE
  8
0
 10
55.783
 11
55.783
 20
-9.077
 21
-8.923
  0
LINE
  8
0
 10
55.783
 11
55.802
 20
-8.923
 21
-8.772
  0
LINE
  8
0
 10
55.802
 11
55.84
 20
-8.772
 21
-8.623
  0
LINE
  8
0
 10
55.84
 11
55.897
 20
-8.623
 21
-8.481
  0
LINE
  8
0
 10
55.897
 11
55.971
 20
-8.481
 21
-8.347
  0
LINE
  8
0
 10
55.971
 11
56.061
 20
-8.347
 21
-8.223
  0
LINE
  8
0
 10
56.061
 11
56.165
 20
-8.223
 21
-8.111
  0
LINE
  8
0
 10
56.165
 11
56.283
 20
-8.111
 21
-8.014
  0
LINE
  8
0
 10
56.283
 11
56.413
 20
-8.014
 21
-7.932
  0
LINE
  8
0
 10
56.413
 11
56.551
 20
-7.932
 21
-7.866
  0
LINE
  8
0
 10
56.551
 11
56.697
 20
-7.866
 21
-7.819
  0
LINE
  8
0
 10
56.697
 11
56.847
 20
-7.819
 21
-7.79
  0
LINE
  8
0
 10
56.847
 11
57
 20
-7.79
 21
-7.781
  0
LINE
  8
0
 10
57
 11
57.153
 20
-7.781
 21
-7.79
  0
LINE
  8
0
 10
57.153
 11
57.303
 20
-7.79
 21
-7.819
  0
LINE
  8
0
 10
57.303
 11
57.449
 20
-7.819
 21
-7.866
  0
LINE
  8
0
 10
57.449
 11
57.587
 20
-7.866
 21
-7.932
  0
LINE
  8
0
 10
57.587
 11
57.717
 20
-7.932
 21
-8.014
  0
LINE
  8
0
 10
57.717
 11
57.835
 20
-8.014
 21
-8.111
  0
LINE
  8
0
 10
57.835
 11
57.939
 20
-8.111
 21
-8.223
  0
LINE
  8
0
 10
57.939
 11
58.029
 20
-8.223
 21
-8.347
  0
LINE
  8
0
 10
58.029
 11
58.103
 20
-8.347
 21
-8.481
  0
LINE
  8
0
 10
58.103
 11
58.16
 20
-8.481
 21
-8.623
  0
LINE
  8
0
 10
58.16
 11
58.198
 20
-8.623
 21
-8.772
  0
LINE
  8
0
 10
58.198
 11
58.217
 20
-8.772
 21
-8.923
  0
LINE
  8
0
 10
58.217
 11
58.217
 20
-8.923
 21
-9.077
  0
LINE
  8
0
 10
58.217
 11
58.198
 20
-9.077
 21
-9.228
  0
LINE
  8
0
 10
58.198
 11
58.16
 20
-9.228
 21
-9.377
  0
LINE
  8
0
 10
58.16
 11
58.103
 20
-9.377
 21
-9.519
  0
LINE
  8
0
 10
58.103
 11
58.029
 20
-9.519
 21
-9.653
  0
LINE
  8
0
 10
58.029
 11
57.939
 20
-9.653
 21
-9.777
  0
LINE
  8
0
 10
57.939
 11
57.835
 20
-9.777
 21
-9.889
  0
LINE
  8
0
 10
57.835
 11
57.717
 20
-9.889
 21
-9.986
  0
LINE
  8
0
 10
57.717
 11
57.587
 20
-9.986
 21
-10.068
  0
LINE
  8
0
 10
57.587
 11
57.449
 20
-10.068
 21
-10.134
  0
LINE
  8
0
 10
57.449
 11
57.303
 20
-10.134
 21
-10.181
  0
LINE
  8
0
 10
57.303
 11
57.153
 20
-10.181
 21
-10.21
  0
LINE
  8
0
 10
57.153
 11
57
 20
-10.21
 21
-10.219
  0
LINE
  8
0
 10
57
 11
56.847
 20
-10.219
 21
-10.21
  0
LINE
  8
0
 10
56.847
 11
56.697
 20
-10.21
 21
-10.181
  0
LINE
  8
0
 10
56.697
 11
56.551
 20
-10.181
 21
-10.134
  0
LINE
  8
0
 10
56.551
 11
56.413
 20
-10.134
 21
-10.068
  0
LINE
  8
0
 10
56.413
 11
56.283
 20
-10.068
 21
-9.986
  0
LINE
  8
0
 10
56.283
 11
56.165
 20
-9.986
 21
-9.889
  0
LINE
  8
0
 10
56.165
 11
56.061
 20
-9.889
 21
-9.777
  0
LINE
  8
0
 10
56.061
 11
55.971
 20
-9.777
 21
-9.653
  0
LINE
  8
0
 10
55.971
 11
55.897
 20
-9.653
 21
-9.519
  0
LINE
  8
0
 10
55.897
 11
55.84
 20
-9.519
 21
-9.377
  0
LINE
  8
0
 10
55.84
 11
55.802
 20
-9.377
 21
-9.228
  0
LINE
  8
0
 10
55.802
 11
55.783
 20
-9.228
 21
-9.077
  0
LINE
  8
0
 10
55.783
 11
55.783
 20
8.923
 21
9.077
  0
LINE
  8
0
 10
55.783
 11
55.802
 20
9.077
 21
9.228
  0
LINE
  8
0
 10
55.802
 11
55.84
 20
9.228
 21
9.377
  0
LINE
  8
0
 10
55.84
 11
55.897
 20
9.377
 21
9.519
  0
LINE
  8
0
 10
55.897
 11
55.971
 20
9.519
 21
9.653
  0
LINE
  8
0
 10
55.971
 11
56.061
 20
9.653
 21
9.777
  0
LINE
  8
0
 10
56.061
 11
56.165
 20
9.777
 21
9.889
  0
LINE
  8
0
 10
56.165
 11
56.283
 20
9.889
 21
9.986
  0
LINE
  8
0
 10
56.283
 11
56.413
 20
9.986
 21
10.068
  0
LINE
  8
0
 10
56.413
 11
56.551
 20
10.068
 21
10.134
  0
LINE
  8
0
 10
56.551
 11
56.697
 20
10.134
 21
10.181
  0
LINE
  8
0
 10
56.697
 11
56.847
 20
10.181
 21
10.21
  0
LINE
  8
0
 10
56.847
 11
57
 20
10.21
 21
10.219
  0
LINE
  8
0
 10
57
 11
57.153
 20
10.219
 21
10.21
  0
LINE
  8
0
 10
57.153
 11
57.303
 20
10.21
 21
10.181
  0
LINE
  8
0
 10
57.303
 11
57.449
 20
10.181
 21
10.134
  0
LINE
  8
0
 10
57.449
 11
57.587
 20
10.134
 21
10.068
  0
LINE
  8
0
 10
57.587
 11
57.717
 20
10.068
 21
9.986
  0
LINE
  8
0
 10
57.717
 11
57.835
 20
9.986
 21
9.889
  0
LINE
  8
0
 10
57.835
 11
57.939
 20
9.889
 21
9.777
  0
LINE
  8
0
 10
57.939
 11
58.029
 20
9.777
 21
9.653
  0
LINE
  8
0
 10
58.029
 11
58.103
 20
9.653
 21
9.519
  0
LINE
  8
0
 10
58.103
 11
58.16
 20
9.519
 21
9.377
  0
LINE
  8
0
 10
58.16
 11
58.198
 20
9.377
 21
9.228
  0
LINE
  8
0
 10
58.198
 11
58.217
 20
9.228
 21
9.077
  0
LINE
  8
0
 10
58.217
 11
58.217
 20
9.077
 21
8.923
  0
LINE
  8
0
 10
58.217
 11
58.198
 20
8.923
 21
8.772
  0
LINE
  8
0
 10
58.198
 11
58.16
 20
8.772
 21
8.623
  0
LINE
  8
0
 10
58.16
 11
58.103
 20
8.623
 21
8.481
  0
LINE
  8
0
 10
58.103
 11
58.029
 20
8.481
 21
8.347
  0
LINE
  8
0
 10
58.029
 11
57.939
 20
8.347
 21
8.223
  0
LINE
  8
0
 10
57.939
 11
57.835
 20
8.223
 21
8.111
  0
LINE
  8
0
 10
57.835
 11
57.717
 20
8.111
 21
8.014
  0
LINE
  8
0
 10
57.717
 11
57.587
 20
8.014
 21
7.932
  0
LINE
  8
0
 10
57.587
 11
57.449
 20
7.932
 21
7.866
  0
LINE
  8
0
 10
57.449
 11
57.303
 20
7.866
 21
7.819
  0
LINE
  8
0
 10
57.303
 11
57.153
 20
7.819
 21
7.79
  0
LINE
  8
0
 10
57.153
 11
57
 20
7.79
 21
7.781
  0
LINE
  8
0
 10
57
 11
56.847
 20
7.781
 21
7.79
  0
LINE
  8
0
 10
56.847
 11
56.697
 20
7.79
 21
7.819
  0
LINE
  8
0
 10
56.697
 11
56.551
 20
7.819
 21
7.866
  0
LINE
  8
0
 10
56.551
 11
56.413
 20
7.866
 21
7.932
  0
LINE
  8
0
 10
56.413
 11
56.283
 20
7.932
 21
8.014
  0
LINE
  8
0
 10
56.283
 11
56.165
 20
8.014
 21
8.111
  0
LINE
  8
0
 10
56.165
 11
56.061
 20
8.111
 21
8.223
  0
LINE
  8
0
 10
56.061
 11
55.971
 20
8.223
 21
8.347
  0
LINE
  8
0
 10
55.971
 11
55.897
 20
8.347
 21
8.481
  0
LINE
  8
0
 10
55.897
 11
55.84
 20
8.481
 21
8.623
  0
LINE
  8
0
 10
55.84
 11
55.802
 20
8.623
 21
8.772
  0
LINE
  8
0
 10
55.802
 11
55.783
 20
8.772
 21
8.923
  0
LINE
  8
0
 10
63
 11
63
 20
-23.5
 21
23.5
  0
LINE
  8
0
 10
63
 11
87
 20
23.5
 21
23.5
  0
LINE
  8
0
 10
87
 11
87
 20
23.5
 21
-23.5
  0
LINE
  8
0
 10
87
 11
63
 20
-23.5
 21
-23.5
  0
ENDSEC
  0
SECTION
  2
OBJECTS
  0
DICTIONARY
  0
ENDSEC
  0
EOF
