<?xml version="1.0" encoding="UTF-8" standalone="no"?>
<!-- Created with Inkscape (http://www.inkscape.org/) -->

<svg
   xmlns:dc="http://purl.org/dc/elements/1.1/"
   xmlns:cc="http://creativecommons.org/ns#"
   xmlns:rdf="http://www.w3.org/1999/02/22-rdf-syntax-ns#"
   xmlns:svg="http://www.w3.org/2000/svg"
   xmlns="http://www.w3.org/2000/svg"
   xmlns:sodipodi="http://sodipodi.sourceforge.net/DTD/sodipodi-0.dtd"
   xmlns:inkscape="http://www.inkscape.org/namespaces/inkscape"
   width="744.09448"
   height="744.09448"
   id="svg3911"
   version="1.1"
   inkscape:version="0.48.5 r10040"
   sodipodi:docname="Primary_eps.eps"
   inkscape:export-filename="C:\Users\Gavin\Documents\rLab logo\Primary_png1000.png"
   inkscape:export-xdpi="120.95"
   inkscape:export-ydpi="120.95">
  <defs
     id="defs3" />
  <sodipodi:namedview
     inkscape:document-units="mm"
     id="base"
     pagecolor="#ffffff"
     bordercolor="#666666"
     borderopacity="1.0"
     inkscape:pageopacity="0.0"
     inkscape:pageshadow="2"
     inkscape:zoom="0.35"
     inkscape:cx="8.5714286"
     inkscape:cy="520"
     inkscape:current-layer="layer1"
     showgrid="false"
     units="mm"
     inkscape:window-width="1280"
     inkscape:window-height="737"
     inkscape:window-x="-8"
     inkscape:window-y="-8"
     inkscape:window-maximized="1" />
  <metadata
     id="metadata4">
    <rdf:RDF>
      <cc:Work
         rdf:about="">
        <dc:format>image/svg+xml</dc:format>
        <dc:type
           rdf:resource="http://purl.org/dc/dcmitype/StillImage" />
        <dc:title></dc:title>
      </cc:Work>
    </rdf:RDF>
  </metadata>
  <g
     inkscape:label="Layer 1"
     inkscape:groupmode="layer"
     id="layer1"
     transform="translate(0,-308.26771)">
    <g
       id="g11588"
       transform="matrix(2.5607552,0,0,2.5607552,-677.86239,-1513.3506)"
       inkscape:export-xdpi="90"
       inkscape:export-ydpi="90">
      <path
         transform="matrix(0,0.80520216,-0.80520216,0,793.7394,791.57774)"
         style="fill:#000000;fill-opacity:1;stroke:#000000;stroke-width:5;stroke-linecap:round;stroke-linejoin:round;stroke-miterlimit:4;stroke-opacity:1"
         d="M 160.33244,614.30834 1.2919473,614.30833 -78.228294,476.57522 1.2919608,338.84211 l 159.0404992,1e-5 79.52024,137.73311 z"
         id="path4336-1-3-9" />
      <path
         transform="matrix(0,0.82888123,-0.82888123,0,1030.257,669.93078)"
         style="fill:#ffffff;fill-opacity:1;stroke:#000000;stroke-width:5;stroke-linecap:round;stroke-linejoin:round;stroke-miterlimit:4;stroke-opacity:1"
         d="m 353.55339,748.30627 c 0,70.85227 -57.43711,128.28937 -128.28937,128.28937 -70.85226,0 -128.289365,-57.4371 -128.289365,-128.28937 0,-70.85226 57.437105,-128.28936 128.289365,-128.28936 70.85226,0 128.28937,57.4371 128.28937,128.28936 z"
         id="path5106-8-7-1" />
      <g
         id="g11578">
        <g
           style="stroke-width:20;stroke-miterlimit:4;stroke-dasharray:none"
           id="g3795-9-1"
           transform="matrix(0.59271155,0,0,0.59271155,261.81452,466.10564)">
          <path
             style="fill:#ffffff;fill-opacity:1;stroke:#000000;stroke-linecap:round;stroke-linejoin:round;stroke-opacity:1"
             d="m 168.21263,558.92493 2.98598,0 0,199.96573 -2.98598,0 z"
             id="rect3761-48-7" />
          <path
             style="fill:#ffffff;fill-opacity:1;stroke:#000000;stroke-linecap:round;stroke-linejoin:round;stroke-opacity:1"
             d="m 275.28882,558.92493 2.98598,0 0,199.96573 -2.98598,0 z"
             id="rect3761-1-8-4" />
          <path
             style="fill:#ffffff;fill-opacity:1;stroke:#000000;stroke-linecap:round;stroke-linejoin:round;stroke-opacity:1"
             d="m 221.75072,558.92493 2.98598,0 0,199.96573 -2.98598,0 z"
             id="rect3761-7-2-0" />
          <path
             style="fill:#ffffff;fill-opacity:1;stroke:#000000;stroke-linecap:round;stroke-linejoin:round;stroke-opacity:1"
             d="m 328.8269,558.92493 2.98599,0 0,199.96573 -2.98599,0 z"
             id="rect3761-4-4-9" />
        </g>
        <path
           style="fill:#ffffff;fill-opacity:1;stroke:#000000;stroke-width:11.85423088;stroke-linecap:round;stroke-linejoin:round;stroke-miterlimit:4;stroke-opacity:1"
           d="m 338.45187,819.82605 143.09626,0 0,73.64367 -143.09626,0 z"
           id="rect2991-5-4" />
        <g
           style="font-size:27.70719528px;font-style:normal;font-variant:normal;font-weight:900;font-stretch:normal;line-height:125%;letter-spacing:0px;word-spacing:0px;fill:#000000;fill-opacity:1;stroke:none;font-family:Kimberley Bl;-inkscape-font-specification:Kimberley Bl Heavy"
           id="text2985-5-8">
          <path
             d="m 353.69945,877.70563 0,-24.88135 c 0,-2.54904 0.60936,-4.46084 1.82809,-5.73541 1.21873,-1.2745 3.15843,-1.91177 5.81912,-1.9118 l 10.75041,0 0,9.58692 -7.09422,0 c -1.10826,2e-5 -1.66238,0.55414 -1.66237,1.66236 l 0,21.27928 z"
             style="font-size:55.41439056px"
             id="path4038" />
          <path
             d="m 375.12923,877.70563 0,-42.11548 9.58692,0 0,31.5308 15.23862,0 0,10.58468 z"
             style="font-size:55.41439056px"
             id="path4040" />
          <path
             d="m 422.55311,865.40447 c -2e-5,-0.73957 -0.36924,-1.10936 -1.10767,-1.10937 l -8.09029,0 c -0.73959,10e-6 -1.10938,0.3698 -1.10937,1.10937 l 0,2.27117 c -1e-5,0.73846 0.36978,1.10768 1.10937,1.10768 l 8.09029,0 c 0.73843,0 1.10765,-0.36922 1.10767,-1.10768 z m -12.74591,12.30116 c -4.72836,0 -7.09253,-2.45662 -7.09253,-7.36987 l 0,-4.82137 c 0,-5.02371 2.36417,-7.53558 7.09253,-7.5356 l 10.91782,0 c 0.62795,2e-5 1.23731,0.12911 1.82809,0.38727 l 0,-2.43859 c -2e-5,-1.10822 -0.55414,-1.66234 -1.66236,-1.66236 l -16.90098,0 0,-9.08804 20.39144,0 c 5.17252,3e-5 7.75879,2.5491 7.75882,7.64721 l 0,17.23413 c -3e-5,5.09815 -2.49385,7.64722 -7.48148,7.64722 z"
             style="font-size:55.41439056px"
             id="path4042" />
          <path
             d="m 436.82103,877.70563 0,-42.11548 9.58692,0 0,9.58692 12.30116,0 c 5.0609,3e-5 7.59137,2.5491 7.5914,7.64721 l 0,17.51148 c -3e-5,4.91325 -2.58574,7.36987 -7.75713,7.36987 z m 19.89425,-21.22347 c -2e-5,-1.10822 -0.5547,-1.66234 -1.66405,-1.66236 l -8.64328,0 0,13.29891 8.64328,0 c 1.10935,1e-5 1.66403,-0.59075 1.66405,-1.77229 z"
             style="font-size:55.41439056px"
             id="path4044" />
        </g>
      </g>
    </g>
  </g>
</svg>
