  0
SECTION
  2
BLOCKS
  0
ENDSEC
  0
SECTION
  2
ENTITIES
  0
LINE
  8
0
 10
-54.033
 11
-54.014
 20
-53.033
 21
-52.838
  0
LINE
  8
0
 10
-54.014
 11
-53.957
 20
-52.838
 21
-52.65
  0
LINE
  8
0
 10
-53.957
 11
-53.864
 20
-52.65
 21
-52.477
  0
LINE
  8
0
 10
-53.864
 11
-53.74
 20
-52.477
 21
-52.326
  0
LINE
  8
0
 10
-53.74
 11
-53.589
 20
-52.326
 21
-52.202
  0
LINE
  8
0
 10
-53.589
 11
-53.416
 20
-52.202
 21
-52.109
  0
LINE
  8
0
 10
-53.416
 11
-53.228
 20
-52.109
 21
-52.052
  0
LINE
  8
0
 10
-53.228
 11
-53.033
 20
-52.052
 21
-52.033
  0
LINE
  8
0
 10
-53.033
 11
-52.838
 20
-52.033
 21
-52.052
  0
LINE
  8
0
 10
-52.838
 11
-52.65
 20
-52.052
 21
-52.109
  0
LINE
  8
0
 10
-52.65
 11
-52.477
 20
-52.109
 21
-52.202
  0
LINE
  8
0
 10
-52.477
 11
-52.326
 20
-52.202
 21
-52.326
  0
LINE
  8
0
 10
-52.326
 11
-52.202
 20
-52.326
 21
-52.477
  0
LINE
  8
0
 10
-52.202
 11
-52.109
 20
-52.477
 21
-52.65
  0
LINE
  8
0
 10
-52.109
 11
-52.052
 20
-52.65
 21
-52.838
  0
LINE
  8
0
 10
-52.052
 11
-52.033
 20
-52.838
 21
-53.033
  0
LINE
  8
0
 10
-52.033
 11
-52.052
 20
-53.033
 21
-53.228
  0
LINE
  8
0
 10
-52.052
 11
-52.109
 20
-53.228
 21
-53.416
  0
LINE
  8
0
 10
-52.109
 11
-52.202
 20
-53.416
 21
-53.589
  0
LINE
  8
0
 10
-52.202
 11
-52.326
 20
-53.589
 21
-53.74
  0
LINE
  8
0
 10
-52.326
 11
-52.477
 20
-53.74
 21
-53.864
  0
LINE
  8
0
 10
-52.477
 11
-52.65
 20
-53.864
 21
-53.957
  0
LINE
  8
0
 10
-52.65
 11
-52.838
 20
-53.957
 21
-54.014
  0
LINE
  8
0
 10
-52.838
 11
-53.033
 20
-54.014
 21
-54.033
  0
LINE
  8
0
 10
-53.033
 11
-53.228
 20
-54.033
 21
-54.014
  0
LINE
  8
0
 10
-53.228
 11
-53.416
 20
-54.014
 21
-53.957
  0
LINE
  8
0
 10
-53.416
 11
-53.589
 20
-53.957
 21
-53.864
  0
LINE
  8
0
 10
-53.589
 11
-53.74
 20
-53.864
 21
-53.74
  0
LINE
  8
0
 10
-53.74
 11
-53.864
 20
-53.74
 21
-53.589
  0
LINE
  8
0
 10
-53.864
 11
-53.957
 20
-53.589
 21
-53.416
  0
LINE
  8
0
 10
-53.957
 11
-54.014
 20
-53.416
 21
-53.228
  0
LINE
  8
0
 10
-54.014
 11
-54.033
 20
-53.228
 21
-53.033
  0
LINE
  8
0
 10
-54.033
 11
-54.014
 20
53.033
 21
53.228
  0
LINE
  8
0
 10
-54.014
 11
-53.957
 20
53.228
 21
53.416
  0
LINE
  8
0
 10
-53.957
 11
-53.864
 20
53.416
 21
53.589
  0
LINE
  8
0
 10
-53.864
 11
-53.74
 20
53.589
 21
53.74
  0
LINE
  8
0
 10
-53.74
 11
-53.589
 20
53.74
 21
53.864
  0
LINE
  8
0
 10
-53.589
 11
-53.416
 20
53.864
 21
53.957
  0
LINE
  8
0
 10
-53.416
 11
-53.228
 20
53.957
 21
54.014
  0
LINE
  8
0
 10
-53.228
 11
-53.033
 20
54.014
 21
54.033
  0
LINE
  8
0
 10
-53.033
 11
-52.838
 20
54.033
 21
54.014
  0
LINE
  8
0
 10
-52.838
 11
-52.65
 20
54.014
 21
53.957
  0
LINE
  8
0
 10
-52.65
 11
-52.477
 20
53.957
 21
53.864
  0
LINE
  8
0
 10
-52.477
 11
-52.326
 20
53.864
 21
53.74
  0
LINE
  8
0
 10
-52.326
 11
-52.202
 20
53.74
 21
53.589
  0
LINE
  8
0
 10
-52.202
 11
-52.109
 20
53.589
 21
53.416
  0
LINE
  8
0
 10
-52.109
 11
-52.052
 20
53.416
 21
53.228
  0
LINE
  8
0
 10
-52.052
 11
-52.033
 20
53.228
 21
53.033
  0
LINE
  8
0
 10
-52.033
 11
-52.052
 20
53.033
 21
52.838
  0
LINE
  8
0
 10
-52.052
 11
-52.109
 20
52.838
 21
52.65
  0
LINE
  8
0
 10
-52.109
 11
-52.202
 20
52.65
 21
52.477
  0
LINE
  8
0
 10
-52.202
 11
-52.326
 20
52.477
 21
52.326
  0
LINE
  8
0
 10
-52.326
 11
-52.477
 20
52.326
 21
52.202
  0
LINE
  8
0
 10
-52.477
 11
-52.65
 20
52.202
 21
52.109
  0
LINE
  8
0
 10
-52.65
 11
-52.838
 20
52.109
 21
52.052
  0
LINE
  8
0
 10
-52.838
 11
-53.033
 20
52.052
 21
52.033
  0
LINE
  8
0
 10
-53.033
 11
-53.228
 20
52.033
 21
52.052
  0
LINE
  8
0
 10
-53.228
 11
-53.416
 20
52.052
 21
52.109
  0
LINE
  8
0
 10
-53.416
 11
-53.589
 20
52.109
 21
52.202
  0
LINE
  8
0
 10
-53.589
 11
-53.74
 20
52.202
 21
52.326
  0
LINE
  8
0
 10
-53.74
 11
-53.864
 20
52.326
 21
52.477
  0
LINE
  8
0
 10
-53.864
 11
-53.957
 20
52.477
 21
52.65
  0
LINE
  8
0
 10
-53.957
 11
-54.014
 20
52.65
 21
52.838
  0
LINE
  8
0
 10
-54.014
 11
-54.033
 20
52.838
 21
53.033
  0
LINE
  8
0
 10
-100
 11
-99.803
 20
0
 21
6.279
  0
LINE
  8
0
 10
-99.803
 11
-99.211
 20
6.279
 21
12.533
  0
LINE
  8
0
 10
-99.211
 11
-98.229
 20
12.533
 21
18.738
  0
LINE
  8
0
 10
-98.229
 11
-96.858
 20
18.738
 21
24.869
  0
LINE
  8
0
 10
-96.858
 11
-95.106
 20
24.869
 21
30.902
  0
LINE
  8
0
 10
-95.106
 11
-92.978
 20
30.902
 21
36.812
  0
LINE
  8
0
 10
-92.978
 11
-90.483
 20
36.812
 21
42.578
  0
LINE
  8
0
 10
-90.483
 11
-87.631
 20
42.578
 21
48.175
  0
LINE
  8
0
 10
-87.631
 11
-84.433
 20
48.175
 21
53.583
  0
LINE
  8
0
 10
-84.433
 11
-80.902
 20
53.583
 21
58.779
  0
LINE
  8
0
 10
-80.902
 11
-77.051
 20
58.779
 21
63.742
  0
LINE
  8
0
 10
-77.051
 11
-72.897
 20
63.742
 21
68.455
  0
LINE
  8
0
 10
-72.897
 11
-68.455
 20
68.455
 21
72.897
  0
LINE
  8
0
 10
-68.455
 11
-63.742
 20
72.897
 21
77.051
  0
LINE
  8
0
 10
-63.742
 11
-58.779
 20
77.051
 21
80.902
  0
LINE
  8
0
 10
-58.779
 11
-53.583
 20
80.902
 21
84.433
  0
LINE
  8
0
 10
-53.583
 11
-48.175
 20
84.433
 21
87.631
  0
LINE
  8
0
 10
-48.175
 11
-42.578
 20
87.631
 21
90.483
  0
LINE
  8
0
 10
-42.578
 11
-36.812
 20
90.483
 21
92.978
  0
LINE
  8
0
 10
-36.812
 11
-30.902
 20
92.978
 21
95.106
  0
LINE
  8
0
 10
-30.902
 11
-24.869
 20
95.106
 21
96.858
  0
LINE
  8
0
 10
-24.869
 11
-18.738
 20
96.858
 21
98.229
  0
LINE
  8
0
 10
-18.738
 11
-12.533
 20
98.229
 21
99.211
  0
LINE
  8
0
 10
-12.533
 11
-6.279
 20
99.211
 21
99.803
  0
LINE
  8
0
 10
-6.279
 11
0
 20
99.803
 21
100
  0
LINE
  8
0
 10
0
 11
6.279
 20
100
 21
99.803
  0
LINE
  8
0
 10
6.279
 11
12.533
 20
99.803
 21
99.211
  0
LINE
  8
0
 10
12.533
 11
18.738
 20
99.211
 21
98.229
  0
LINE
  8
0
 10
18.738
 11
24.869
 20
98.229
 21
96.858
  0
LINE
  8
0
 10
24.869
 11
30.902
 20
96.858
 21
95.106
  0
LINE
  8
0
 10
30.902
 11
36.812
 20
95.106
 21
92.978
  0
LINE
  8
0
 10
36.812
 11
42.578
 20
92.978
 21
90.483
  0
LINE
  8
0
 10
42.578
 11
48.175
 20
90.483
 21
87.631
  0
LINE
  8
0
 10
48.175
 11
53.583
 20
87.631
 21
84.433
  0
LINE
  8
0
 10
53.583
 11
58.779
 20
84.433
 21
80.902
  0
LINE
  8
0
 10
58.779
 11
63.742
 20
80.902
 21
77.051
  0
LINE
  8
0
 10
63.742
 11
68.455
 20
77.051
 21
72.897
  0
LINE
  8
0
 10
68.455
 11
72.897
 20
72.897
 21
68.455
  0
LINE
  8
0
 10
72.897
 11
77.051
 20
68.455
 21
63.742
  0
LINE
  8
0
 10
77.051
 11
80.902
 20
63.742
 21
58.779
  0
LINE
  8
0
 10
80.902
 11
84.433
 20
58.779
 21
53.583
  0
LINE
  8
0
 10
84.433
 11
87.631
 20
53.583
 21
48.175
  0
LINE
  8
0
 10
87.631
 11
90.483
 20
48.175
 21
42.578
  0
LINE
  8
0
 10
90.483
 11
92.978
 20
42.578
 21
36.812
  0
LINE
  8
0
 10
92.978
 11
95.106
 20
36.812
 21
30.902
  0
LINE
  8
0
 10
95.106
 11
96.858
 20
30.902
 21
24.869
  0
LINE
  8
0
 10
96.858
 11
98.229
 20
24.869
 21
18.738
  0
LINE
  8
0
 10
98.229
 11
99.211
 20
18.738
 21
12.533
  0
LINE
  8
0
 10
99.211
 11
99.803
 20
12.533
 21
6.279
  0
LINE
  8
0
 10
99.803
 11
100
 20
6.279
 21
0
  0
LINE
  8
0
 10
100
 11
99.803
 20
0
 21
-6.279
  0
LINE
  8
0
 10
99.803
 11
99.211
 20
-6.279
 21
-12.533
  0
LINE
  8
0
 10
99.211
 11
98.229
 20
-12.533
 21
-18.738
  0
LINE
  8
0
 10
98.229
 11
96.858
 20
-18.738
 21
-24.869
  0
LINE
  8
0
 10
96.858
 11
95.106
 20
-24.869
 21
-30.902
  0
LINE
  8
0
 10
95.106
 11
92.978
 20
-30.902
 21
-36.812
  0
LINE
  8
0
 10
92.978
 11
90.483
 20
-36.812
 21
-42.578
  0
LINE
  8
0
 10
90.483
 11
87.631
 20
-42.578
 21
-48.175
  0
LINE
  8
0
 10
87.631
 11
84.433
 20
-48.175
 21
-53.583
  0
LINE
  8
0
 10
84.433
 11
80.902
 20
-53.583
 21
-58.779
  0
LINE
  8
0
 10
80.902
 11
77.051
 20
-58.779
 21
-63.742
  0
LINE
  8
0
 10
77.051
 11
72.897
 20
-63.742
 21
-68.455
  0
LINE
  8
0
 10
72.897
 11
68.455
 20
-68.455
 21
-72.897
  0
LINE
  8
0
 10
68.455
 11
63.742
 20
-72.897
 21
-77.051
  0
LINE
  8
0
 10
63.742
 11
58.779
 20
-77.051
 21
-80.902
  0
LINE
  8
0
 10
58.779
 11
53.583
 20
-80.902
 21
-84.433
  0
LINE
  8
0
 10
53.583
 11
48.175
 20
-84.433
 21
-87.631
  0
LINE
  8
0
 10
48.175
 11
42.578
 20
-87.631
 21
-90.483
  0
LINE
  8
0
 10
42.578
 11
36.812
 20
-90.483
 21
-92.978
  0
LINE
  8
0
 10
36.812
 11
30.902
 20
-92.978
 21
-95.106
  0
LINE
  8
0
 10
30.902
 11
24.869
 20
-95.106
 21
-96.858
  0
LINE
  8
0
 10
24.869
 11
18.738
 20
-96.858
 21
-98.229
  0
LINE
  8
0
 10
18.738
 11
12.533
 20
-98.229
 21
-99.211
  0
LINE
  8
0
 10
12.533
 11
6.279
 20
-99.211
 21
-99.803
  0
LINE
  8
0
 10
6.279
 11
0
 20
-99.803
 21
-100
  0
LINE
  8
0
 10
0
 11
-6.279
 20
-100
 21
-99.803
  0
LINE
  8
0
 10
-6.279
 11
-12.533
 20
-99.803
 21
-99.211
  0
LINE
  8
0
 10
-12.533
 11
-18.738
 20
-99.211
 21
-98.229
  0
LINE
  8
0
 10
-18.738
 11
-24.869
 20
-98.229
 21
-96.858
  0
LINE
  8
0
 10
-24.869
 11
-30.902
 20
-96.858
 21
-95.106
  0
LINE
  8
0
 10
-30.902
 11
-36.812
 20
-95.106
 21
-92.978
  0
LINE
  8
0
 10
-36.812
 11
-42.578
 20
-92.978
 21
-90.483
  0
LINE
  8
0
 10
-42.578
 11
-48.175
 20
-90.483
 21
-87.631
  0
LINE
  8
0
 10
-48.175
 11
-53.583
 20
-87.631
 21
-84.433
  0
LINE
  8
0
 10
-53.583
 11
-58.779
 20
-84.433
 21
-80.902
  0
LINE
  8
0
 10
-58.779
 11
-63.742
 20
-80.902
 21
-77.051
  0
LINE
  8
0
 10
-63.742
 11
-68.455
 20
-77.051
 21
-72.897
  0
LINE
  8
0
 10
-68.455
 11
-72.897
 20
-72.897
 21
-68.455
  0
LINE
  8
0
 10
-72.897
 11
-77.051
 20
-68.455
 21
-63.742
  0
LINE
  8
0
 10
-77.051
 11
-80.902
 20
-63.742
 21
-58.779
  0
LINE
  8
0
 10
-80.902
 11
-84.433
 20
-58.779
 21
-53.583
  0
LINE
  8
0
 10
-84.433
 11
-87.631
 20
-53.583
 21
-48.175
  0
LINE
  8
0
 10
-87.631
 11
-90.483
 20
-48.175
 21
-42.578
  0
LINE
  8
0
 10
-90.483
 11
-92.978
 20
-42.578
 21
-36.812
  0
LINE
  8
0
 10
-92.978
 11
-95.106
 20
-36.812
 21
-30.902
  0
LINE
  8
0
 10
-95.106
 11
-96.858
 20
-30.902
 21
-24.869
  0
LINE
  8
0
 10
-96.858
 11
-98.229
 20
-24.869
 21
-18.738
  0
LINE
  8
0
 10
-98.229
 11
-99.211
 20
-18.738
 21
-12.533
  0
LINE
  8
0
 10
-99.211
 11
-99.803
 20
-12.533
 21
-6.279
  0
LINE
  8
0
 10
-99.803
 11
-100
 20
-6.279
 21
0
  0
LINE
  8
0
 10
52.033
 11
52.052
 20
-53.033
 21
-52.838
  0
LINE
  8
0
 10
52.052
 11
52.109
 20
-52.838
 21
-52.65
  0
LINE
  8
0
 10
52.109
 11
52.202
 20
-52.65
 21
-52.477
  0
LINE
  8
0
 10
52.202
 11
52.326
 20
-52.477
 21
-52.326
  0
LINE
  8
0
 10
52.326
 11
52.477
 20
-52.326
 21
-52.202
  0
LINE
  8
0
 10
52.477
 11
52.65
 20
-52.202
 21
-52.109
  0
LINE
  8
0
 10
52.65
 11
52.838
 20
-52.109
 21
-52.052
  0
LINE
  8
0
 10
52.838
 11
53.033
 20
-52.052
 21
-52.033
  0
LINE
  8
0
 10
53.033
 11
53.228
 20
-52.033
 21
-52.052
  0
LINE
  8
0
 10
53.228
 11
53.416
 20
-52.052
 21
-52.109
  0
LINE
  8
0
 10
53.416
 11
53.589
 20
-52.109
 21
-52.202
  0
LINE
  8
0
 10
53.589
 11
53.74
 20
-52.202
 21
-52.326
  0
LINE
  8
0
 10
53.74
 11
53.864
 20
-52.326
 21
-52.477
  0
LINE
  8
0
 10
53.864
 11
53.957
 20
-52.477
 21
-52.65
  0
LINE
  8
0
 10
53.957
 11
54.014
 20
-52.65
 21
-52.838
  0
LINE
  8
0
 10
54.014
 11
54.033
 20
-52.838
 21
-53.033
  0
LINE
  8
0
 10
54.033
 11
54.014
 20
-53.033
 21
-53.228
  0
LINE
  8
0
 10
54.014
 11
53.957
 20
-53.228
 21
-53.416
  0
LINE
  8
0
 10
53.957
 11
53.864
 20
-53.416
 21
-53.589
  0
LINE
  8
0
 10
53.864
 11
53.74
 20
-53.589
 21
-53.74
  0
LINE
  8
0
 10
53.74
 11
53.589
 20
-53.74
 21
-53.864
  0
LINE
  8
0
 10
53.589
 11
53.416
 20
-53.864
 21
-53.957
  0
LINE
  8
0
 10
53.416
 11
53.228
 20
-53.957
 21
-54.014
  0
LINE
  8
0
 10
53.228
 11
53.033
 20
-54.014
 21
-54.033
  0
LINE
  8
0
 10
53.033
 11
52.838
 20
-54.033
 21
-54.014
  0
LINE
  8
0
 10
52.838
 11
52.65
 20
-54.014
 21
-53.957
  0
LINE
  8
0
 10
52.65
 11
52.477
 20
-53.957
 21
-53.864
  0
LINE
  8
0
 10
52.477
 11
52.326
 20
-53.864
 21
-53.74
  0
LINE
  8
0
 10
52.326
 11
52.202
 20
-53.74
 21
-53.589
  0
LINE
  8
0
 10
52.202
 11
52.109
 20
-53.589
 21
-53.416
  0
LINE
  8
0
 10
52.109
 11
52.052
 20
-53.416
 21
-53.228
  0
LINE
  8
0
 10
52.052
 11
52.033
 20
-53.228
 21
-53.033
  0
LINE
  8
0
 10
52.033
 11
52.052
 20
53.033
 21
53.228
  0
LINE
  8
0
 10
52.052
 11
52.109
 20
53.228
 21
53.416
  0
LINE
  8
0
 10
52.109
 11
52.202
 20
53.416
 21
53.589
  0
LINE
  8
0
 10
52.202
 11
52.326
 20
53.589
 21
53.74
  0
LINE
  8
0
 10
52.326
 11
52.477
 20
53.74
 21
53.864
  0
LINE
  8
0
 10
52.477
 11
52.65
 20
53.864
 21
53.957
  0
LINE
  8
0
 10
52.65
 11
52.838
 20
53.957
 21
54.014
  0
LINE
  8
0
 10
52.838
 11
53.033
 20
54.014
 21
54.033
  0
LINE
  8
0
 10
53.033
 11
53.228
 20
54.033
 21
54.014
  0
LINE
  8
0
 10
53.228
 11
53.416
 20
54.014
 21
53.957
  0
LINE
  8
0
 10
53.416
 11
53.589
 20
53.957
 21
53.864
  0
LINE
  8
0
 10
53.589
 11
53.74
 20
53.864
 21
53.74
  0
LINE
  8
0
 10
53.74
 11
53.864
 20
53.74
 21
53.589
  0
LINE
  8
0
 10
53.864
 11
53.957
 20
53.589
 21
53.416
  0
LINE
  8
0
 10
53.957
 11
54.014
 20
53.416
 21
53.228
  0
LINE
  8
0
 10
54.014
 11
54.033
 20
53.228
 21
53.033
  0
LINE
  8
0
 10
54.033
 11
54.014
 20
53.033
 21
52.838
  0
LINE
  8
0
 10
54.014
 11
53.957
 20
52.838
 21
52.65
  0
LINE
  8
0
 10
53.957
 11
53.864
 20
52.65
 21
52.477
  0
LINE
  8
0
 10
53.864
 11
53.74
 20
52.477
 21
52.326
  0
LINE
  8
0
 10
53.74
 11
53.589
 20
52.326
 21
52.202
  0
LINE
  8
0
 10
53.589
 11
53.416
 20
52.202
 21
52.109
  0
LINE
  8
0
 10
53.416
 11
53.228
 20
52.109
 21
52.052
  0
LINE
  8
0
 10
53.228
 11
53.033
 20
52.052
 21
52.033
  0
LINE
  8
0
 10
53.033
 11
52.838
 20
52.033
 21
52.052
  0
LINE
  8
0
 10
52.838
 11
52.65
 20
52.052
 21
52.109
  0
LINE
  8
0
 10
52.65
 11
52.477
 20
52.109
 21
52.202
  0
LINE
  8
0
 10
52.477
 11
52.326
 20
52.202
 21
52.326
  0
LINE
  8
0
 10
52.326
 11
52.202
 20
52.326
 21
52.477
  0
LINE
  8
0
 10
52.202
 11
52.109
 20
52.477
 21
52.65
  0
LINE
  8
0
 10
52.109
 11
52.052
 20
52.65
 21
52.838
  0
LINE
  8
0
 10
52.052
 11
52.033
 20
52.838
 21
53.033
  0
ENDSEC
  0
SECTION
  2
OBJECTS
  0
DICTIONARY
  0
ENDSEC
  0
EOF
